<svg xmlns="http://www.w3.org/2000/svg" viewBox="0 0 144 36" width="144" height="36">
	<path fill="rgba(255, 255, 255, .75)" d="M21.1113,20.4893c0,1.998-1.1523,3.69-4.5371,3.69s-4.5381-1.6924-4.5381-3.69V15.52c0-1.999,1.1524-3.6914,4.5381-3.6914s4.5371,1.6924,4.5371,3.6914Zm-6.8066-.126c0,1.1338.5762,1.8183,2.27,1.8183s2.2686-.6845,2.2686-1.8183V15.6455c0-1.1348-.5762-1.8184-2.2686-1.8184s-2.27.6836-2.27,1.8184Zm12.626-5.4561V24H24.7158V12.0088H27.74l4.5557,9.11v-9.11h2.2148V24H31.4854Zm11.4541-2.8984h7.3457v1.998H40.6533v2.9H45.335v1.998H40.6533V22.001h5.0772V24H38.3848ZM61.3809,24,58.626,20.0391h-2.16V24H54.1973V12.0088h4.915c2.791,0,3.8174,1.1338,3.8174,3.24v1.5664a2.7329,2.7329,0,0,1-1.8008,2.8994L64.1,24Zm-2.3584-9.9932H56.4658v4.0694h2.5567c1.2421,0,1.6386-.45,1.6386-1.458V15.43C60.6611,14.4209,60.2285,14.0068,59.0225,14.0068Zm8.0517-1.998H74.42v1.998H69.3428v2.9h4.6816v1.998H69.3428V22.001H74.42V24H67.0742Zm10.86,0h4.6816c2.7725,0,3.7988,1.1338,3.7988,3.24v1.6387c0,2.0889-1.1162,3.2236-3.9072,3.2236H80.2031V24H77.9346Zm4.5556,1.998H80.2031v4.1055H82.49c1.2784,0,1.6563-.4678,1.6563-1.458V15.43C84.1465,14.44,83.7324,14.0068,82.49,14.0068Zm19.377,8.4444H98.9863l-2.2148-6.2119L96.5732,24H94.25l.541-11.9912h2.5381l3.0967,8.5166,3.0976-8.5166h2.5381L106.6025,24h-2.3232l-.1982-7.7607Zm15.2-.9356H112.62L111.8643,24h-2.377l3.7813-11.9912h3.1689L120.2188,24h-2.377Zm-3.8887-1.9629h3.3125l-1.6387-5.6718ZM132.5908,24h-2.4492l-2.61-4.249L124.92,24h-2.4482l3.7627-6.0322-3.6192-5.959h2.4317l2.4844,4.1767,2.4843-4.1767h2.4307l-3.6192,5.959Z"/>
</svg>
