<?xml version="1.0" standalone="no"?>
<!DOCTYPE svg PUBLIC "-//W3C//DTD SVG 20010904//EN"
 "http://www.w3.org/TR/2001/REC-SVG-20010904/DTD/svg10.dtd">
<svg version="1.0" xmlns="http://www.w3.org/2000/svg"
 width="700.000000pt" height="700.000000pt" viewBox="0 0 700.000000 700.000000"
 preserveAspectRatio="xMidYMid meet">
<metadata>
Created by potrace 1.11, written by Peter Selinger 2001-2013
</metadata>
<g transform="translate(0.000000,700.000000) scale(0.100000,-0.100000)"
fill="#000000" stroke="none">
<path d="M1894 4715 c-2 -5 -3 -557 -2 -1225 l3 -1215 225 0 225 0 5 405 5
405 218 0 219 0 66 -95 c37 -52 89 -128 117 -167 27 -40 73 -105 101 -145 28
-40 101 -146 163 -235 62 -90 115 -163 119 -164 39 -6 542 -2 542 4 0 7 -109
167 -325 477 -216 310 -264 383 -259 391 3 5 22 16 42 25 68 28 136 82 201
159 39 47 82 157 101 260 12 67 11 567 -1 630 -6 28 -12 60 -15 73 -8 41 -37
106 -69 157 -95 148 -258 231 -515 261 -94 11 -1162 10 -1166 -1z m1100 -409
c62 -9 138 -51 165 -91 42 -62 49 -114 47 -325 -2 -107 -6 -204 -9 -216 -29
-109 -97 -164 -224 -180 -61 -8 -589 -13 -610 -6 -17 6 -19 818 -2 824 18 6
590 1 633 -6z"/>
<path d="M4594 4719 c-5 -8 -14 -171 -29 -539 -3 -69 -8 -165 -10 -215 -2 -49
-7 -153 -10 -230 -3 -77 -8 -180 -10 -230 -6 -119 -13 -259 -20 -430 -3 -77
-8 -174 -10 -215 -8 -133 -18 -402 -19 -495 l-1 -89 233 -1 c199 0 232 2 233
15 4 55 15 456 34 1245 4 171 8 311 10 313 1 1 22 -55 48 -125 25 -71 125
-353 224 -628 l178 -500 294 0 295 0 107 300 c59 165 132 370 163 455 30 85
69 193 86 240 16 47 44 124 61 173 17 48 33 87 34 87 2 0 4 -60 5 -132 1 -73
3 -191 5 -263 10 -331 26 -949 29 -1107 0 -38 3 -68 6 -69 3 -1 110 -2 238 -3
l233 -1 -6 110 c-5 106 -9 207 -20 455 -5 118 -13 277 -20 435 -7 151 -16 335
-20 445 -3 58 -7 159 -10 225 -3 66 -8 165 -10 220 -2 55 -6 150 -9 210 -3 61
-8 162 -11 225 -3 63 -8 116 -11 119 -10 10 -506 6 -513 -4 -5 -5 -24 -55 -43
-110 -20 -55 -57 -158 -83 -230 -26 -71 -62 -170 -80 -220 -18 -49 -63 -173
-100 -275 -37 -102 -76 -210 -87 -240 -10 -30 -23 -64 -27 -75 -5 -11 -32 -85
-61 -165 -109 -303 -145 -400 -150 -400 -5 0 -84 213 -347 940 -68 190 -128
354 -133 365 -5 11 -39 103 -75 205 -36 101 -70 191 -75 199 -7 13 -47 15
-260 16 -139 0 -254 -3 -256 -6z"/>
<path d="M620 4618 c-30 -17 -152 -88 -270 -156 -118 -69 -240 -138 -270 -155
-87 -47 -85 -42 -46 -111 18 -33 59 -110 91 -171 32 -60 59 -111 61 -113 1 -2
100 51 221 117 l218 120 3 -931 c1 -538 6 -934 11 -937 7 -5 404 -6 434 -2 4
1 7 534 7 1186 l0 1185 -202 0 -203 0 -55 -32z"/>
</g>
</svg>
